<?xml version="1.0" encoding="UTF-8" standalone="no"?>
<!DOCTYPE svg PUBLIC "-//W3C//DTD SVG 1.1//EN" "http://www.w3.org/Graphics/SVG/1.1/DTD/svg11.dtd">
<svg width="100%" height="100%" viewBox="0 0 1000 500" version="1.1" xmlns="http://www.w3.org/2000/svg" xmlns:xlink="http://www.w3.org/1999/xlink" xml:space="preserve" xmlns:serif="http://www.serif.com/" style="fill-rule:evenodd;clip-rule:evenodd;stroke-linecap:round;stroke-linejoin:round;stroke-miterlimit:1.5;">
    <g transform="matrix(1,0,0,1,-120,-92.622)">
        <g transform="matrix(1.58424,0,0,1.11692,-133.029,6.44339)">
            <rect x="159.716" y="77.157" width="631.216" height="447.658" style="fill:white;"/>
        </g>
        <g transform="matrix(0.154797,0,0,0.154797,311.3,103.17)">
            <g transform="matrix(1.013,0,0,1.0136,-1.8143,-3.27926)">
                <path d="M692.447,61.806C694.577,62.89 696.487,64.361 697.2,66.556C697.439,67.29 697.442,68.081 697.563,68.843C697.563,101.283 697.253,133.725 697.565,166.163C697.759,178.384 708.376,189.494 721.266,189.534L818.177,189.534C821.321,190.032 824.26,191.7 825.218,194.647C825.457,195.381 825.46,196.171 825.581,196.934C825.581,436.975 826.372,677.018 825.58,917.058C825.395,936.962 808.097,955.094 787.329,955.287C600.591,955.902 413.849,955.902 227.111,955.287C207.23,955.102 189.058,937.813 188.86,917.059C188.001,644.598 188,372.134 188.86,99.673C189.049,79.732 206.261,61.574 227.335,61.444L690.159,61.444C690.921,61.564 691.684,61.685 692.447,61.806ZM227.381,76.242C215.067,76.319 203.79,86.804 203.667,99.767C202.807,372.216 201.07,644.68 203.668,917.118C203.862,929.3 214.279,940.284 227.05,940.487C413.822,942.224 600.618,942.225 787.389,940.487C799.65,940.292 810.731,929.68 810.773,916.799L810.773,204.333C780.851,204.333 750.929,204.426 721.007,204.332C700.923,204.141 682.818,186.904 682.755,165.867L682.755,76.242C530.964,76.242 379.173,76.242 227.381,76.242Z" style="fill-rule:nonzero;"/>
            </g>
            <path d="M697.632,59.007C700.492,59.245 700.61,59.344 702.624,61.2L832.306,191.032C834.608,193.536 834.431,194.497 834.494,196.027C834.653,199.929 831.298,203.664 827.306,203.826C825.239,203.911 823.228,203.047 821.694,201.633L692.011,71.8C690.642,70.311 690.452,69.725 690.128,68.636C688.951,64.675 691.652,60.022 695.783,59.159C696.947,58.915 697.246,59.006 697.632,59.007Z" style="fill-rule:nonzero;"/>
            <g transform="matrix(1,0,0,1,-9.92904,147.848)">
                <path d="M376.839,591.117L397.089,589.148C398.308,595.945 400.781,600.937 404.507,604.125C408.234,607.312 413.261,608.906 419.589,608.906C426.292,608.906 431.343,607.488 434.742,604.652C438.14,601.816 439.839,598.5 439.839,594.703C439.839,592.266 439.124,590.191 437.695,588.48C436.265,586.769 433.769,585.281 430.206,584.016C427.769,583.172 422.214,581.672 413.542,579.516C402.386,576.75 394.558,573.351 390.058,569.32C383.73,563.648 380.566,556.734 380.566,548.578C380.566,543.328 382.054,538.418 385.031,533.848C388.007,529.277 392.296,525.797 397.898,523.406C403.499,521.016 410.261,519.82 418.183,519.82C431.12,519.82 440.859,522.656 447.398,528.328C453.937,534 457.37,541.57 457.699,551.039L436.886,551.953C435.995,546.656 434.085,542.848 431.156,540.527C428.226,538.207 423.831,537.047 417.972,537.047C411.925,537.047 407.191,538.289 403.769,540.773C401.566,542.367 400.464,544.5 400.464,547.172C400.464,549.609 401.495,551.695 403.558,553.43C406.183,555.633 412.558,557.93 422.683,560.32C432.808,562.711 440.296,565.183 445.148,567.738C449.999,570.293 453.796,573.785 456.538,578.215C459.281,582.644 460.652,588.117 460.652,594.633C460.652,600.539 459.011,606.07 455.73,611.226C452.449,616.383 447.808,620.215 441.808,622.723C435.808,625.23 428.331,626.484 419.378,626.484C406.347,626.484 396.339,623.473 389.355,617.449C382.37,611.426 378.199,602.648 376.839,591.117Z" style="fill-rule:nonzero;"/>
                <path d="M504.456,624.656L467.613,521.578L490.183,521.578L516.269,597.867L541.511,521.578L563.589,521.578L526.675,624.656L504.456,624.656Z" style="fill-rule:nonzero;"/>
                <path d="M622.16,586.758L622.16,569.391L667.019,569.391L667.019,610.453C662.66,614.672 656.343,618.387 648.07,621.598C639.796,624.808 631.417,626.414 622.933,626.414C612.152,626.414 602.753,624.152 594.738,619.629C586.722,615.105 580.699,608.637 576.667,600.223C572.636,591.808 570.62,582.656 570.62,572.766C570.62,562.031 572.87,552.492 577.37,544.148C581.87,535.805 588.456,529.406 597.128,524.953C603.738,521.531 611.964,519.82 621.808,519.82C634.605,519.82 644.601,522.504 651.796,527.871C658.992,533.238 663.62,540.656 665.683,550.125L645.011,553.992C643.558,548.93 640.827,544.933 636.82,542.004C632.812,539.074 627.808,537.609 621.808,537.609C612.714,537.609 605.484,540.492 600.117,546.258C594.749,552.023 592.066,560.578 592.066,571.922C592.066,584.156 594.785,593.332 600.222,599.449C605.66,605.566 612.785,608.625 621.597,608.625C625.956,608.625 630.327,607.769 634.71,606.058C639.093,604.348 642.855,602.273 645.995,599.836L645.995,586.758L622.16,586.758Z" style="fill-rule:nonzero;"/>
            </g>
        </g>
        <g transform="matrix(0.154797,0,0,0.154797,769.709,103.17)">
            <g transform="matrix(1.013,0,0,1.0136,-1.8143,-3.27926)">
                <path d="M692.447,61.806C694.577,62.89 696.487,64.361 697.2,66.556C697.439,67.29 697.442,68.081 697.563,68.843C697.563,101.283 697.253,133.725 697.565,166.163C697.759,178.384 708.376,189.494 721.266,189.534L818.177,189.534C821.321,190.032 824.26,191.7 825.218,194.647C825.457,195.381 825.46,196.171 825.581,196.934C825.581,436.975 826.372,677.018 825.58,917.058C825.395,936.962 808.097,955.094 787.329,955.287C600.591,955.902 413.849,955.902 227.111,955.287C207.23,955.102 189.058,937.813 188.86,917.059C188.001,644.598 188,372.134 188.86,99.673C189.049,79.732 206.261,61.574 227.335,61.444L690.159,61.444C690.921,61.564 691.684,61.685 692.447,61.806ZM227.381,76.242C215.067,76.319 203.79,86.804 203.667,99.767C202.807,372.216 201.07,644.68 203.668,917.118C203.862,929.3 214.279,940.284 227.05,940.487C413.822,942.224 600.618,942.225 787.389,940.487C799.65,940.292 810.731,929.68 810.773,916.799L810.773,204.333C780.851,204.333 750.929,204.426 721.007,204.332C700.923,204.141 682.818,186.904 682.755,165.867L682.755,76.242C530.964,76.242 379.173,76.242 227.381,76.242Z" style="fill-rule:nonzero;"/>
            </g>
            <path d="M697.632,59.007C700.492,59.245 700.61,59.344 702.624,61.2L832.306,191.032C834.608,193.536 834.431,194.497 834.494,196.027C834.653,199.929 831.298,203.664 827.306,203.826C825.239,203.911 823.228,203.047 821.694,201.633L692.011,71.8C690.642,70.311 690.452,69.725 690.128,68.636C688.951,64.675 691.652,60.022 695.783,59.159C696.947,58.915 697.246,59.006 697.632,59.007Z" style="fill-rule:nonzero;"/>
            <g transform="matrix(1,0,0,1,-9.92904,147.848)">
                <path d="M382.113,624.656L382.113,521.578L415.511,521.578C428.167,521.578 436.417,522.094 440.261,523.125C446.167,524.672 451.113,528.035 455.097,533.215C459.081,538.394 461.074,545.086 461.074,553.289C461.074,559.617 459.925,564.937 457.628,569.25C455.331,573.562 452.413,576.949 448.874,579.41C445.335,581.871 441.738,583.5 438.081,584.297C433.113,585.281 425.917,585.773 416.495,585.773L402.925,585.773L402.925,624.656L382.113,624.656ZM402.925,539.016L402.925,568.266L414.316,568.266C422.519,568.266 428.003,567.726 430.769,566.648C433.535,565.57 435.702,563.883 437.273,561.586C438.843,559.289 439.628,556.617 439.628,553.57C439.628,549.82 438.527,546.726 436.324,544.289C434.12,541.851 431.331,540.328 427.956,539.719C425.472,539.25 420.48,539.016 412.98,539.016L402.925,539.016Z" style="fill-rule:nonzero;"/>
                <path d="M478.37,624.656L478.37,521.578L498.62,521.578L540.808,590.414L540.808,521.578L560.144,521.578L560.144,624.656L539.261,624.656L497.706,557.437L497.706,624.656L478.37,624.656Z" style="fill-rule:nonzero;"/>
                <path d="M630.105,586.758L630.105,569.391L674.964,569.391L674.964,610.453C670.605,614.672 664.288,618.387 656.015,621.598C647.742,624.808 639.363,626.414 630.878,626.414C620.097,626.414 610.699,624.152 602.683,619.629C594.667,615.105 588.644,608.637 584.613,600.223C580.581,591.808 578.566,582.656 578.566,572.766C578.566,562.031 580.816,552.492 585.316,544.148C589.816,535.805 596.402,529.406 605.074,524.953C611.683,521.531 619.91,519.82 629.753,519.82C642.55,519.82 652.546,522.504 659.742,527.871C666.937,533.238 671.566,540.656 673.628,550.125L652.956,553.992C651.503,548.93 648.773,544.933 644.765,542.004C640.757,539.074 635.753,537.609 629.753,537.609C620.66,537.609 613.429,540.492 608.062,546.258C602.695,552.023 600.011,560.578 600.011,571.922C600.011,584.156 602.73,593.332 608.167,599.449C613.605,605.566 620.73,608.625 629.542,608.625C633.902,608.625 638.273,607.769 642.656,606.058C647.038,604.348 650.8,602.273 653.941,599.836L653.941,586.758L630.105,586.758Z" style="fill-rule:nonzero;"/>
            </g>
        </g>
        <g transform="matrix(0.626474,0,0,1,223.565,44.5659)">
            <path d="M417.18,142.665L417.18,133.127L830.501,133.127L830.501,124.271L852.25,137.896L830.501,151.521L830.501,142.665L417.18,142.665Z" style="fill:none;stroke:black;stroke-width:2.4px;"/>
        </g>
        <g transform="matrix(0.626474,0,0,1,223.565,205.735)">
            <path d="M417.18,142.665L417.18,133.127L830.501,133.127L830.501,124.271L852.25,137.896L830.501,151.521L830.501,142.665L417.18,142.665Z" style="fill:none;stroke:black;stroke-width:2.4px;"/>
        </g>
        <g transform="matrix(0.154797,0,0,0.154797,311.824,264.34)">
            <g transform="matrix(1.013,0,0,1.0136,-1.8143,-3.27926)">
                <path d="M692.447,61.806C694.577,62.89 696.487,64.361 697.2,66.556C697.439,67.29 697.442,68.081 697.563,68.843C697.563,101.283 697.253,133.725 697.565,166.163C697.759,178.384 708.376,189.494 721.266,189.534L818.177,189.534C821.321,190.032 824.26,191.7 825.218,194.647C825.457,195.381 825.46,196.171 825.581,196.934C825.581,436.975 826.372,677.018 825.58,917.058C825.395,936.962 808.097,955.094 787.329,955.287C600.591,955.902 413.849,955.902 227.111,955.287C207.23,955.102 189.058,937.813 188.86,917.059C188.001,644.598 188,372.134 188.86,99.673C189.049,79.732 206.261,61.574 227.335,61.444L690.159,61.444C690.921,61.564 691.684,61.685 692.447,61.806ZM227.381,76.242C215.067,76.319 203.79,86.804 203.667,99.767C202.807,372.216 201.07,644.68 203.668,917.118C203.862,929.3 214.279,940.284 227.05,940.487C413.822,942.224 600.618,942.225 787.389,940.487C799.65,940.292 810.731,929.68 810.773,916.799L810.773,204.333C780.851,204.333 750.929,204.426 721.007,204.332C700.923,204.141 682.818,186.904 682.755,165.867L682.755,76.242C530.964,76.242 379.173,76.242 227.381,76.242Z" style="fill-rule:nonzero;"/>
            </g>
            <path d="M697.632,59.007C700.492,59.245 700.61,59.344 702.624,61.2L832.306,191.032C834.608,193.536 834.431,194.497 834.494,196.027C834.653,199.929 831.298,203.664 827.306,203.826C825.239,203.911 823.228,203.047 821.694,201.633L692.011,71.8C690.642,70.311 690.452,69.725 690.128,68.636C688.951,64.675 691.652,60.022 695.783,59.159C696.947,58.915 697.246,59.006 697.632,59.007Z" style="fill-rule:nonzero;"/>
            <g transform="matrix(1,0,0,1,-9.92904,147.848)">
                <path d="M376.839,591.117L397.089,589.148C398.308,595.945 400.781,600.937 404.507,604.125C408.234,607.312 413.261,608.906 419.589,608.906C426.292,608.906 431.343,607.488 434.742,604.652C438.14,601.816 439.839,598.5 439.839,594.703C439.839,592.266 439.124,590.191 437.695,588.48C436.265,586.769 433.769,585.281 430.206,584.016C427.769,583.172 422.214,581.672 413.542,579.516C402.386,576.75 394.558,573.351 390.058,569.32C383.73,563.648 380.566,556.734 380.566,548.578C380.566,543.328 382.054,538.418 385.031,533.848C388.007,529.277 392.296,525.797 397.898,523.406C403.499,521.016 410.261,519.82 418.183,519.82C431.12,519.82 440.859,522.656 447.398,528.328C453.937,534 457.37,541.57 457.699,551.039L436.886,551.953C435.995,546.656 434.085,542.848 431.156,540.527C428.226,538.207 423.831,537.047 417.972,537.047C411.925,537.047 407.191,538.289 403.769,540.773C401.566,542.367 400.464,544.5 400.464,547.172C400.464,549.609 401.495,551.695 403.558,553.43C406.183,555.633 412.558,557.93 422.683,560.32C432.808,562.711 440.296,565.183 445.148,567.738C449.999,570.293 453.796,573.785 456.538,578.215C459.281,582.644 460.652,588.117 460.652,594.633C460.652,600.539 459.011,606.07 455.73,611.226C452.449,616.383 447.808,620.215 441.808,622.723C435.808,625.23 428.331,626.484 419.378,626.484C406.347,626.484 396.339,623.473 389.355,617.449C382.37,611.426 378.199,602.648 376.839,591.117Z" style="fill-rule:nonzero;"/>
                <path d="M504.456,624.656L467.613,521.578L490.183,521.578L516.269,597.867L541.511,521.578L563.589,521.578L526.675,624.656L504.456,624.656Z" style="fill-rule:nonzero;"/>
                <path d="M622.16,586.758L622.16,569.391L667.019,569.391L667.019,610.453C662.66,614.672 656.343,618.387 648.07,621.598C639.796,624.808 631.417,626.414 622.933,626.414C612.152,626.414 602.753,624.152 594.738,619.629C586.722,615.105 580.699,608.637 576.667,600.223C572.636,591.808 570.62,582.656 570.62,572.766C570.62,562.031 572.87,552.492 577.37,544.148C581.87,535.805 588.456,529.406 597.128,524.953C603.738,521.531 611.964,519.82 621.808,519.82C634.605,519.82 644.601,522.504 651.796,527.871C658.992,533.238 663.62,540.656 665.683,550.125L645.011,553.992C643.558,548.93 640.827,544.933 636.82,542.004C632.812,539.074 627.808,537.609 621.808,537.609C612.714,537.609 605.484,540.492 600.117,546.258C594.749,552.023 592.066,560.578 592.066,571.922C592.066,584.156 594.785,593.332 600.222,599.449C605.66,605.566 612.785,608.625 621.597,608.625C625.956,608.625 630.327,607.769 634.71,606.058C639.093,604.348 642.855,602.273 645.995,599.836L645.995,586.758L622.16,586.758Z" style="fill-rule:nonzero;"/>
            </g>
        </g>
        <g transform="matrix(0.154797,0,0,0.154797,770.234,264.34)">
            <g transform="matrix(1.013,0,0,1.0136,-1.8143,-3.27926)">
                <path d="M692.447,61.806C694.577,62.89 696.487,64.361 697.2,66.556C697.439,67.29 697.442,68.081 697.563,68.843C697.563,101.283 697.253,133.725 697.565,166.163C697.759,178.384 708.376,189.494 721.266,189.534L818.177,189.534C821.321,190.032 824.26,191.7 825.218,194.647C825.457,195.381 825.46,196.171 825.581,196.934C825.581,436.975 826.372,677.018 825.58,917.058C825.395,936.962 808.097,955.094 787.329,955.287C600.591,955.902 413.849,955.902 227.111,955.287C207.23,955.102 189.058,937.813 188.86,917.059C188.001,644.598 188,372.134 188.86,99.673C189.049,79.732 206.261,61.574 227.335,61.444L690.159,61.444C690.921,61.564 691.684,61.685 692.447,61.806ZM227.381,76.242C215.067,76.319 203.79,86.804 203.667,99.767C202.807,372.216 201.07,644.68 203.668,917.118C203.862,929.3 214.279,940.284 227.05,940.487C413.822,942.224 600.618,942.225 787.389,940.487C799.65,940.292 810.731,929.68 810.773,916.799L810.773,204.333C780.851,204.333 750.929,204.426 721.007,204.332C700.923,204.141 682.818,186.904 682.755,165.867L682.755,76.242C530.964,76.242 379.173,76.242 227.381,76.242Z" style="fill-rule:nonzero;"/>
            </g>
            <path d="M697.632,59.007C700.492,59.245 700.61,59.344 702.624,61.2L832.306,191.032C834.608,193.536 834.431,194.497 834.494,196.027C834.653,199.929 831.298,203.664 827.306,203.826C825.239,203.911 823.228,203.047 821.694,201.633L692.011,71.8C690.642,70.311 690.452,69.725 690.128,68.636C688.951,64.675 691.652,60.022 695.783,59.159C696.947,58.915 697.246,59.006 697.632,59.007Z" style="fill-rule:nonzero;"/>
            <g transform="matrix(1,0,0,1,-9.92904,147.848)">
                <path d="M382.113,624.656L382.113,521.578L415.511,521.578C428.167,521.578 436.417,522.094 440.261,523.125C446.167,524.672 451.113,528.035 455.097,533.215C459.081,538.394 461.074,545.086 461.074,553.289C461.074,559.617 459.925,564.937 457.628,569.25C455.331,573.562 452.413,576.949 448.874,579.41C445.335,581.871 441.738,583.5 438.081,584.297C433.113,585.281 425.917,585.773 416.495,585.773L402.925,585.773L402.925,624.656L382.113,624.656ZM402.925,539.016L402.925,568.266L414.316,568.266C422.519,568.266 428.003,567.726 430.769,566.648C433.535,565.57 435.702,563.883 437.273,561.586C438.843,559.289 439.628,556.617 439.628,553.57C439.628,549.82 438.527,546.726 436.324,544.289C434.12,541.851 431.331,540.328 427.956,539.719C425.472,539.25 420.48,539.016 412.98,539.016L402.925,539.016Z" style="fill-rule:nonzero;"/>
                <path d="M478.37,624.656L478.37,521.578L498.62,521.578L540.808,590.414L540.808,521.578L560.144,521.578L560.144,624.656L539.261,624.656L497.706,557.437L497.706,624.656L478.37,624.656Z" style="fill-rule:nonzero;"/>
                <path d="M630.105,586.758L630.105,569.391L674.964,569.391L674.964,610.453C670.605,614.672 664.288,618.387 656.015,621.598C647.742,624.808 639.363,626.414 630.878,626.414C620.097,626.414 610.699,624.152 602.683,619.629C594.667,615.105 588.644,608.637 584.613,600.223C580.581,591.808 578.566,582.656 578.566,572.766C578.566,562.031 580.816,552.492 585.316,544.148C589.816,535.805 596.402,529.406 605.074,524.953C611.683,521.531 619.91,519.82 629.753,519.82C642.55,519.82 652.546,522.504 659.742,527.871C666.937,533.238 671.566,540.656 673.628,550.125L652.956,553.992C651.503,548.93 648.773,544.933 644.765,542.004C640.757,539.074 635.753,537.609 629.753,537.609C620.66,537.609 613.429,540.492 608.062,546.258C602.695,552.023 600.011,560.578 600.011,571.922C600.011,584.156 602.73,593.332 608.167,599.449C613.605,605.566 620.73,608.625 629.542,608.625C633.902,608.625 638.273,607.769 642.656,606.058C647.038,604.348 650.8,602.273 653.941,599.836L653.941,586.758L630.105,586.758Z" style="fill-rule:nonzero;"/>
            </g>
        </g>
        <g transform="matrix(0.154797,0,0,0.154797,311.3,425.509)">
            <g transform="matrix(1.013,0,0,1.0136,-1.8143,-3.27926)">
                <path d="M692.447,61.806C694.577,62.89 696.487,64.361 697.2,66.556C697.439,67.29 697.442,68.081 697.563,68.843C697.563,101.283 697.253,133.725 697.565,166.163C697.759,178.384 708.376,189.494 721.266,189.534L818.177,189.534C821.321,190.032 824.26,191.7 825.218,194.647C825.457,195.381 825.46,196.171 825.581,196.934C825.581,436.975 826.372,677.018 825.58,917.058C825.395,936.962 808.097,955.094 787.329,955.287C600.591,955.902 413.849,955.902 227.111,955.287C207.23,955.102 189.058,937.813 188.86,917.059C188.001,644.598 188,372.134 188.86,99.673C189.049,79.732 206.261,61.574 227.335,61.444L690.159,61.444C690.921,61.564 691.684,61.685 692.447,61.806ZM227.381,76.242C215.067,76.319 203.79,86.804 203.667,99.767C202.807,372.216 201.07,644.68 203.668,917.118C203.862,929.3 214.279,940.284 227.05,940.487C413.822,942.224 600.618,942.225 787.389,940.487C799.65,940.292 810.731,929.68 810.773,916.799L810.773,204.333C780.851,204.333 750.929,204.426 721.007,204.332C700.923,204.141 682.818,186.904 682.755,165.867L682.755,76.242C530.964,76.242 379.173,76.242 227.381,76.242Z" style="fill-rule:nonzero;"/>
            </g>
            <path d="M697.632,59.007C700.492,59.245 700.61,59.344 702.624,61.2L832.306,191.032C834.608,193.536 834.431,194.497 834.494,196.027C834.653,199.929 831.298,203.664 827.306,203.826C825.239,203.911 823.228,203.047 821.694,201.633L692.011,71.8C690.642,70.311 690.452,69.725 690.128,68.636C688.951,64.675 691.652,60.022 695.783,59.159C696.947,58.915 697.246,59.006 697.632,59.007Z" style="fill-rule:nonzero;"/>
            <g transform="matrix(1,0,0,1,-9.92904,147.848)">
                <path d="M376.839,591.117L397.089,589.148C398.308,595.945 400.781,600.937 404.507,604.125C408.234,607.312 413.261,608.906 419.589,608.906C426.292,608.906 431.343,607.488 434.742,604.652C438.14,601.816 439.839,598.5 439.839,594.703C439.839,592.266 439.124,590.191 437.695,588.48C436.265,586.769 433.769,585.281 430.206,584.016C427.769,583.172 422.214,581.672 413.542,579.516C402.386,576.75 394.558,573.351 390.058,569.32C383.73,563.648 380.566,556.734 380.566,548.578C380.566,543.328 382.054,538.418 385.031,533.848C388.007,529.277 392.296,525.797 397.898,523.406C403.499,521.016 410.261,519.82 418.183,519.82C431.12,519.82 440.859,522.656 447.398,528.328C453.937,534 457.37,541.57 457.699,551.039L436.886,551.953C435.995,546.656 434.085,542.848 431.156,540.527C428.226,538.207 423.831,537.047 417.972,537.047C411.925,537.047 407.191,538.289 403.769,540.773C401.566,542.367 400.464,544.5 400.464,547.172C400.464,549.609 401.495,551.695 403.558,553.43C406.183,555.633 412.558,557.93 422.683,560.32C432.808,562.711 440.296,565.183 445.148,567.738C449.999,570.293 453.796,573.785 456.538,578.215C459.281,582.644 460.652,588.117 460.652,594.633C460.652,600.539 459.011,606.07 455.73,611.226C452.449,616.383 447.808,620.215 441.808,622.723C435.808,625.23 428.331,626.484 419.378,626.484C406.347,626.484 396.339,623.473 389.355,617.449C382.37,611.426 378.199,602.648 376.839,591.117Z" style="fill-rule:nonzero;"/>
                <path d="M504.456,624.656L467.613,521.578L490.183,521.578L516.269,597.867L541.511,521.578L563.589,521.578L526.675,624.656L504.456,624.656Z" style="fill-rule:nonzero;"/>
                <path d="M622.16,586.758L622.16,569.391L667.019,569.391L667.019,610.453C662.66,614.672 656.343,618.387 648.07,621.598C639.796,624.808 631.417,626.414 622.933,626.414C612.152,626.414 602.753,624.152 594.738,619.629C586.722,615.105 580.699,608.637 576.667,600.223C572.636,591.808 570.62,582.656 570.62,572.766C570.62,562.031 572.87,552.492 577.37,544.148C581.87,535.805 588.456,529.406 597.128,524.953C603.738,521.531 611.964,519.82 621.808,519.82C634.605,519.82 644.601,522.504 651.796,527.871C658.992,533.238 663.62,540.656 665.683,550.125L645.011,553.992C643.558,548.93 640.827,544.933 636.82,542.004C632.812,539.074 627.808,537.609 621.808,537.609C612.714,537.609 605.484,540.492 600.117,546.258C594.749,552.023 592.066,560.578 592.066,571.922C592.066,584.156 594.785,593.332 600.222,599.449C605.66,605.566 612.785,608.625 621.597,608.625C625.956,608.625 630.327,607.769 634.71,606.058C639.093,604.348 642.855,602.273 645.995,599.836L645.995,586.758L622.16,586.758Z" style="fill-rule:nonzero;"/>
            </g>
        </g>
        <g transform="matrix(1,0,0,1,-185.472,366.904)">
            <path d="M807.18,142.665L807.18,133.127L838.625,133.127L838.625,124.271L852.25,137.896L838.625,151.521L838.625,142.665L807.18,142.665Z" style="fill:none;stroke:black;stroke-width:2px;"/>
        </g>
        <g transform="matrix(1,0,0,1.07885,111.9,-100.702)">
            <rect x="474.956" y="556.775" width="22.506" height="8.815" style="fill:none;stroke:black;stroke-width:1.92px;"/>
        </g>
        <g transform="matrix(1,0,0,1.07885,78.7867,-100.702)">
            <rect x="474.956" y="556.775" width="22.506" height="8.815" style="fill:none;stroke:black;stroke-width:1.92px;"/>
        </g>
        <g transform="matrix(1,0,0,1.07885,44.4249,-100.702)">
            <rect x="474.956" y="556.775" width="22.506" height="8.815" style="fill:none;stroke:black;stroke-width:1.92px;"/>
        </g>
        <g transform="matrix(1,0,0,1.07885,9.96165,-100.702)">
            <rect x="474.956" y="556.775" width="22.506" height="8.815" style="fill:none;stroke:black;stroke-width:1.92px;"/>
        </g>
    </g>
</svg>
